PathFileType	4	(X/Y/Z)	Walk5.trc
DataRate	CameraRate	NumFrames	NumMarkers	Units	OrigDataRate	OrigDataStartFrame	OrigNumFrames
200.000000	200.000000	5	58	mm	200.000000	571	695
Frame#	Times		LToe		RBHD		LWRR		LElbow		LACR1		C7		RMT5		RToe		RTB2		LCAR		RTB3		LWRU		RCAR		RMT1		LElbowM		RFA1		RMMAL		LTH3		LASI		RCAL		RWRU		RLFC		LTH4		RElbow		LTB2		LMMAL		LPSI		RASI		RElbowM		LCAL		RPSI		LLFC		RTH3		LBHD		T10		LTH2		RFHD		RBack		LMT5		LUA1		RUA1		LFHD		RLMAL		RMFC		LLMAL		LMFC		RACR1		LTB1		RWRR		LTB4		LTB3		RTH4		RTB1		LMT1		RTH1		RTB4		RTH2		LTH1
			X1	Y1	Z1	X2	Y2	Z2	X3	Y3	Z3	X4	Y4	Z4	X5	Y5	Z5	X6	Y6	Z6	X7	Y7	Z7	X8	Y8	Z8	X9	Y9	Z9	X10	Y10	Z10	X11	Y11	Z11	X12	Y12	Z12	X13	Y13	Z13	X14	Y14	Z14	X15	Y15	Z15	X16	Y16	Z16	X17	Y17	Z17	X18	Y18	Z18	X19	Y19	Z19	X20	Y20	Z20	X21	Y21	Z21	X22	Y22	Z22	X23	Y23	Z23	X24	Y24	Z24	X25	Y25	Z25	X26	Y26	Z26	X27	Y27	Z27	X28	Y28	Z28	X29	Y29	Z29	X30	Y30	Z30	X31	Y31	Z31	X32	Y32	Z32	X33	Y33	Z33	X34	Y34	Z34	X35	Y35	Z35	X36	Y36	Z36	X37	Y37	Z37	X38	Y38	Z38	X39	Y39	Z39	X40	Y40	Z40	X41	Y41	Z41	X42	Y42	Z42	X43	Y43	Z43	X44	Y44	Z44	X45	Y45	Z45	X46	Y46	Z46	X47	Y47	Z47	X48	Y48	Z48	X49	Y49	Z49	X50	Y50	Z50	X51	Y51	Z51	X52	Y52	Z52	X53	Y53	Z53	X54	Y54	Z54	X55	Y55	Z55	X56	Y56	Z56	X57	Y57	Z57	X58	Y58	Z58

571	2.855	713.93	103.58	-61.872	322.72	1607.5	-40.495	236.49	816.45	-265.12	245.56	1097.3	-258.73	377.37	1413.8	-144.67	290.12	1478.6	25.573	258.82	23.085	138.38	355.1	22.978	92.996	262.03	272.35	124.56	226.27	958.99	-267.62	230.3	189.67	49.139	299.67	780.93	-245	464.61	812.1	297.52	298	25.886	56.402	198.2	1098.1	-187.77	356.06	932.3	311.98	171.93	68.931	24.184	447.5	590.33	-125.08	384.71	1028.3	-133.34	87.811	37.421	48.692	392.1	818.56	276.34	293.88	510.56	142.26	420.63	680.32	-141.9	300.24	1084.4	319.82	520.58	327.84	-119.45	548.05	90.119	-29.457	190.95	1041.9	-16.319	370.74	991.75	178.54	258.86	1084.5	243.4	476.35	30.399	-62.111	186.53	1047.1	52.588	450.15	531.08	-121.22	297.41	557.91	147.63	323.93	1602	96.276	210.03	1224.3	27.15	473.36	700.68	-95.069	499.89	1644.9	-9.996	270.79	1368.1	179.08	654.48	56.947	-116.95	313.08	1220.7	-222.34	367.44	1244.6	270.63	500.27	1643.6	64.964	148.86	71.806	103.9	259.82	484.79	17.571	529.77	73.904	-110.69	445.27	501.21	6.9533	400.6	1422.6	179.77	522.12	418.33	-43.902	460.3	860.93	249.7	530.74	326.37	-47.823	541.76	234.9	-53.209	366	654.76	130.75	297.9	365.63	50.72	677.96	68.794	-41.206	305.67	743.69	191.65	263.24	272.7	48.807	304.72	649.28	171.71	392.2	768.54	-153.34
572	2.86	728.19	107.75	-61.554	328.02	1606.8	-41.126	239.59	816.22	-265.78	249.81	1097	-259.24	382.77	1412.9	-145.22	295.46	1477.9	24.968	258.78	23.067	138.33	355.11	22.928	92.982	263.35	271.92	124.37	229.95	958.78	-268.17	231.16	189.39	48.961	302.54	780.33	-245.62	470.66	811.88	297.1	298.05	25.859	56.36	202.55	1097.9	-188.2	361.87	931.84	311.67	172.1	69	24.108	449.92	588.44	-125.89	390.12	1027.4	-133.56	87.886	37.739	48.572	398.11	818.2	275.99	296.5	510.02	142.03	423.68	678.66	-142.47	305.77	1083.8	319.58	528.49	328.01	-119.82	562.73	90.965	-29.504	196.18	1041.3	-17.183	375.02	991	178.45	264.3	1083.8	243.2	492.5	29.464	-61.982	191.49	1046.6	51.677	452.87	529.45	-121.77	300.26	557.39	147.39	329.21	1601.3	95.645	215.28	1223.6	26.492	476.59	698.53	-95.671	505.18	1644.2	-10.618	276.13	1367.5	178.56	670	59.884	-116.8	317.84	1220.1	-222.84	372.92	1244.1	270.18	505.56	1643	64.342	149.02	72.064	103.82	262.44	484.39	17.315	544.89	74.256	-110.66	448.19	499.27	6.3701	405.93	1422	179.2	527.9	418.69	-44.466	466.21	860.68	249.28	539.05	326.95	-48.252	552.6	235.71	-53.537	369.32	653.9	130.62	299.67	365.14	50.062	693.12	72.11	-40.972	309.32	743.15	191.31	264.52	272.34	48.45	307.97	648.74	171.47	395.92	767.09	-153.8
573	2.865	741.81	111.93	-61.232	333.32	1606	-41.78	242.79	815.96	-266.43	254.09	1096.7	-259.77	388.2	1412.1	-145.8	300.81	1477.2	24.338	258.74	23.045	138.29	355.12	22.868	92.958	264.69	271.49	124.18	233.7	958.55	-268.72	232.03	189.12	48.786	305.54	779.73	-246.24	476.66	811.6	296.66	298.1	25.851	56.311	206.94	1097.7	-188.66	367.65	931.35	311.34	172.28	69.078	24.027	452.3	586.48	-126.75	395.57	1026.4	-133.77	87.963	38.076	48.453	404.08	817.81	275.62	299.14	509.48	141.79	426.69	676.93	-143.09	311.29	1083.2	319.3	536.24	328.21	-120.16	576.83	91.952	-29.493	201.43	1040.7	-18.072	379.34	990.23	178.34	269.75	1083.2	242.97	508.04	28.74	-61.787	196.48	1046.1	50.743	455.64	527.84	-122.32	303.14	556.86	147.15	334.49	1600.6	94.992	220.54	1223	25.801	479.82	696.33	-96.364	510.47	1643.5	-11.261	281.48	1366.9	178	684.85	62.913	-116.66	322.64	1219.5	-223.37	378.39	1243.5	269.7	510.85	1642.3	63.698	149.17	72.335	103.73	265.1	483.98	17.051	559.41	74.781	-110.57	451.16	497.37	5.7621	411.27	1421.3	178.61	533.63	419.03	-45.019	472.08	860.39	248.85	547.17	327.55	-48.655	563.09	236.59	-53.823	372.68	653.03	130.47	301.47	364.61	49.438	707.64	75.477	-40.772	313.01	742.6	190.96	265.83	271.97	48.114	311.26	648.2	171.22	399.57	765.55	-154.3
574	2.87	754.76	116.04	-60.933	338.64	1605.2	-42.456	246.1	815.68	-267.06	258.42	1096.4	-260.32	393.65	1411.3	-146.4	306.16	1476.5	23.682	258.71	23.02	138.25	355.12	22.795	92.925	266.05	271.07	123.99	237.52	958.29	-269.28	232.91	188.85	48.612	308.65	779.14	-246.85	482.6	811.29	296.2	298.14	25.865	56.254	211.38	1097.5	-189.13	373.38	930.84	310.98	172.46	69.169	23.942	454.72	584.49	-127.67	401.05	1025.3	-133.98	88.042	38.436	48.336	410	817.38	275.23	301.82	508.93	141.54	429.69	675.16	-143.76	316.79	1082.6	318.99	543.83	328.41	-120.48	590.3	93.033	-29.42	206.7	1040.1	-18.983	383.69	989.46	178.21	275.19	1082.5	242.7	522.9	28.191	-61.508	201.49	1045.5	49.789	458.52	526.26	-122.88	306.05	556.34	146.92	339.79	1599.9	94.317	225.81	1222.3	25.076	483.06	694.09	-97.142	515.77	1642.8	-11.926	286.83	1366.2	177.41	698.96	65.956	-116.54	327.47	1218.9	-223.92	383.87	1242.9	269.19	516.14	1641.7	63.034	149.34	72.617	103.64	267.8	483.55	16.778	573.27	75.429	-110.42	454.2	495.52	5.1367	416.61	1420.6	177.99	539.33	419.35	-45.553	477.91	860.06	248.41	555.07	328.16	-49.027	573.18	237.49	-54.06	376.07	652.15	130.3	303.3	364.04	48.866	721.46	78.831	-40.617	316.75	742.04	190.59	267.16	271.58	47.8	314.6	647.65	170.96	403.19	763.96	-154.84
575	2.875	767	120.01	-60.683	343.96	1604.4	-43.157	249.53	815.37	-267.68	262.79	1096	-260.9	399.12	1410.4	-147.02	311.52	1475.8	22.999	258.67	22.992	138.22	355.13	22.713	92.886	267.42	270.65	123.8	241.4	958.01	-269.84	233.8	188.6	48.441	311.9	778.54	-247.46	488.49	810.93	295.73	298.18	25.9	56.189	215.86	1097.3	-189.63	379.08	930.3	310.6	172.65	69.273	23.852	457.21	582.49	-128.61	406.57	1024.3	-134.18	88.121	38.82	48.22	415.86	816.92	274.81	304.52	508.37	141.29	432.72	673.36	-144.47	322.28	1082	318.64	551.24	328.6	-120.77	603.1	94.157	-29.284	211.98	1039.4	-19.911	388.08	988.67	178.07	280.62	1081.9	242.39	537	27.78	-61.131	206.53	1044.9	48.822	461.56	524.74	-123.42	309.01	555.81	146.7	345.09	1599.1	93.618	231.09	1221.6	24.319	486.35	691.87	-97.992	521.08	1642.1	-12.611	292.18	1365.6	176.8	712.27	68.929	-116.44	332.33	1218.3	-224.5	389.35	1242.2	268.65	521.45	1641	62.348	149.5	72.91	103.54	270.53	483.12	16.497	586.39	76.144	-110.2	457.37	493.77	4.5049	421.95	1419.9	177.35	545	419.63	-46.064	483.7	859.68	247.95	562.75	328.74	-49.363	582.87	238.38	-54.245	379.51	651.25	130.11	305.16	363.43	48.361	734.54	82.106	-40.516	320.53	741.48	190.2	268.51	271.19	47.506	317.98	647.1	170.68	406.79	762.34	-155.43
